<?xml version="1.0" encoding="UTF-8"?>
<svg width="48px" height="36px" viewBox="0 0 48 36" version="1.1" xmlns="http://www.w3.org/2000/svg" xmlns:xlink="http://www.w3.org/1999/xlink">
    <!-- Generator: Sketch 56.3 (81716) - https://sketch.com -->
    <title>icon-tracking</title>
    <desc>Created with Sketch.</desc>
    <g id="Page-1" stroke="none" stroke-width="1" fill="none" fill-rule="evenodd">
        <g id="homepage-V1" transform="translate(-156.000000, -667.000000)" fill="#FFFFFF" fill-rule="nonzero">
            <g id="icon-tracking" transform="translate(156.000000, 667.000000)">
                <path d="M47.2228091,19.5562204 L37.4044636,9.69805265 C36.9604949,9.24940846 36.3560457,8.99801083 35.7261545,9.00001185 L22.1454545,9.00001185 L22.1454545,10.5882577 L26.1,10.5882577 L26.1,22.5000119 L27.6818182,22.5000119 L27.6818182,10.5882577 L35.7261545,10.5882577 C35.9361736,10.588092 36.1376347,10.6718032 36.2861182,10.820934 L37.6362,12.1764916 L34.0090909,12.1764916 C33.1354769,12.1764916 32.4272727,12.8875682 32.4272727,13.7647255 L32.4272727,20.911778 C32.4272727,21.7889354 33.1354769,22.5000119 34.0090909,22.5000119 L45.8727273,22.5000119 L45.8727273,28.8529475 C45.8727273,29.2915262 45.5186252,29.6470644 45.0818182,29.6470644 L43.4367273,29.6470644 C43.0457848,26.913883 40.7137065,24.8846033 37.9636364,24.8846033 C35.2135662,24.8846033 32.8814879,26.913883 32.4905455,29.6470644 L21.2912727,29.6470644 C20.9003303,26.913883 18.568252,24.8846033 15.8181818,24.8846033 C13.0681117,24.8846033 10.7360333,26.913883 10.3450909,29.6470644 L8.7,29.6470644 C8.26319297,29.6470644 7.90909091,29.2915262 7.90909091,28.8529475 L7.90909091,21.705895 L6.32727273,21.705895 L6.32727273,28.8529475 C6.32727273,30.1686835 7.38957891,31.2352983 8.7,31.2352983 L10.3450909,31.2352983 C10.517722,32.4427833 11.0823591,33.5593313 11.9514273,34.4117661 L0,34.4117661 L0,36 L37.9636364,36 C40.7125357,35.9947213 43.0420138,33.9667505 43.4367273,31.2352983 L45.0818182,31.2352983 C46.3922393,31.2352983 47.4545455,30.1686835 47.4545455,28.8529475 L47.4545455,20.1176611 C47.4545455,19.9070654 47.3711436,19.7051116 47.2228091,19.5562204 Z M11.8636364,30.4411814 C11.8636364,28.248288 13.6341467,26.4705967 15.8181818,26.4705967 C18.002217,26.4705967 19.7727273,28.248288 19.7727273,30.4411814 C19.7727273,32.6340748 18.002217,34.4117661 15.8181818,34.4117661 C13.6352307,34.4091407 11.8662512,32.6329864 11.8636364,30.4411814 Z M19.6849364,34.4117661 C20.5540046,33.5593313 21.1186416,32.4427833 21.2912727,31.2352983 L32.4905455,31.2352983 C32.6631765,32.4427833 33.2278136,33.5593313 34.0968818,34.4117661 L19.6849364,34.4117661 Z M37.9636364,34.4117661 C35.7796012,34.4117661 34.0090909,32.6340748 34.0090909,30.4411814 C34.0090909,28.248288 35.7796012,26.4705967 37.9636364,26.4705967 C40.1476715,26.4705967 41.9181818,28.248288 41.9181818,30.4411814 C41.915567,32.6329864 40.1465875,34.4091407 37.9636364,34.4117661 L37.9636364,34.4117661 Z M34.0090909,20.911778 L34.0090909,13.7647255 L39.2180182,13.7647255 L45.8727273,20.4464255 L45.8727273,20.911778 L34.0090909,20.911778 Z" id="Shape"></path>
                <rect id="Rectangle" x="14.7272727" y="29.4545455" width="1.63636364" height="1.63636364"></rect>
                <rect id="Rectangle" x="36.8181818" y="29.4545455" width="1.63636364" height="1.63636364"></rect>
                <rect id="Rectangle" x="0" y="27" width="4.09090909" height="1.63636364"></rect>
                <rect id="Rectangle" x="1.63636364" y="24.5454545" width="2.45454545" height="1.63636364"></rect>
                <rect id="Rectangle" x="2.45454545" y="21.2727273" width="1.63636364" height="1.63636364"></rect>
                <path d="M10.2272727,20.4545455 C15.8756395,20.4545455 20.4545455,15.8756395 20.4545455,10.2272727 C20.4545455,4.57890597 15.8756395,0 10.2272727,0 C4.57890597,0 0,4.57890597 0,10.2272727 C0.00650298701,15.8729437 4.58160179,20.4480425 10.2272727,20.4545455 Z M10.2272727,1.57342657 C15.00666,1.57342657 18.8811189,5.44788547 18.8811189,10.2272727 C18.8811189,15.00666 15.00666,18.8811189 10.2272727,18.8811189 C5.44788547,18.8811189 1.57342657,15.00666 1.57342657,10.2272727 C1.57906219,5.45022177 5.45022177,1.57906219 10.2272727,1.57342657 Z" id="Shape"></path>
                <path d="M10.6363636,17.1818182 C10.8533412,17.1818182 11.061415,17.1003336 11.2148182,16.9554091 C11.7417273,16.4577727 16.3636364,11.9968182 16.3636364,8.68181818 C16.3636364,5.69445976 13.799449,3.27272727 10.6363636,3.27272727 C7.47327825,3.27272727 4.90909091,5.69445976 4.90909091,8.68181818 C4.90909091,11.9968182 9.531,16.4577727 10.0579091,16.9554091 C10.2113122,17.1003336 10.4193861,17.1818182 10.6363636,17.1818182 L10.6363636,17.1818182 Z M10.6363636,4.81818182 C12.8945889,4.82073654 14.7245677,6.54904984 14.7272727,8.68181818 C14.7272727,10.6646364 12.1524545,13.7285 10.6363636,15.2894091 C9.12027273,13.7285 6.54545455,10.6646364 6.54545455,8.68181818 C6.54815955,6.54904984 8.37813833,4.82073654 10.6363636,4.81818182 Z" id="Shape"></path>
                <path d="M13.0909091,9 C13.0909091,7.64439198 11.9919717,6.54545455 10.6363636,6.54545455 C9.28075561,6.54545455 8.18181818,7.64439198 8.18181818,9 C8.18181818,10.355608 9.28075561,11.4545455 10.6363636,11.4545455 C11.9919717,11.4545455 13.0909091,10.355608 13.0909091,9 Z M9.81818182,9 C9.81818182,8.54813066 10.1844943,8.18181818 10.6363636,8.18181818 C11.088233,8.18181818 11.4545455,8.54813066 11.4545455,9 C11.4545455,9.45186934 11.088233,9.81818182 10.6363636,9.81818182 C10.1844943,9.81818182 9.81818182,9.45186934 9.81818182,9 Z" id="Shape"></path>
                <rect id="Rectangle" x="30.2727273" y="24.5454545" width="3.27272727" height="1.63636364"></rect>
            </g>
        </g>
    </g>
</svg>