<?xml version="1.0" encoding="UTF-8"?>
<svg width="42px" height="42px" viewBox="0 0 42 42" version="1.1" xmlns="http://www.w3.org/2000/svg" xmlns:xlink="http://www.w3.org/1999/xlink">
    <!-- Generator: Sketch 56.3 (81716) - https://sketch.com -->
    <title>icon-messaging</title>
    <desc>Created with Sketch.</desc>
    <g id="Page-1" stroke="none" stroke-width="1" fill="none" fill-rule="evenodd">
        <g id="homepage-V1" transform="translate(-440.000000, -668.000000)" fill="#FFFFFF" fill-rule="nonzero">
            <g id="icon-messaging" transform="translate(440.000000, 668.000000)">
                <path d="M18.8181818,12.2833333 C18.6894175,12.1049709 18.4873345,12 18.2727273,12 L8.72727273,12 C8.51266548,12 8.31058253,12.1049709 8.18181818,12.2833333 L6.13636364,15.1166667 C6.04784855,15.2392765 6,15.3884044 6,15.5416667 L6,27.5833333 C6,28.3657367 6.6105208,29 7.36363636,29 L19.6363636,29 C20.3894792,29 21,28.3657367 21,27.5833333 L21,15.5416667 C21,15.3884044 20.9521515,15.2392765 20.8636364,15.1166667 L18.8181818,12.2833333 Z M9.06818182,13.4166667 L17.9318182,13.4166667 L18.9545455,14.8333333 L8.04545455,14.8333333 L9.06818182,13.4166667 Z M10.7727273,17.6666667 L7.36363636,17.6666667 L7.36363636,16.25 L10.7727273,16.25 L10.7727273,17.6666667 Z M12.1363636,16.25 L14.8636364,16.25 L14.8636364,19.8844583 L13.8784091,19.2023333 C13.649293,19.0435253 13.350707,19.0435253 13.1215909,19.2023333 L12.1363636,19.8844583 L12.1363636,16.25 Z M16.2272727,16.25 L19.6363636,16.25 L19.6363636,17.6666667 L16.2272727,17.6666667 L16.2272727,16.25 Z M7.36363636,27.5833333 L7.36363636,19.0833333 L10.7727273,19.0833333 L10.7727273,21.2083333 C10.7726896,21.4696282 10.9111217,21.7097243 11.1328875,21.8329941 C11.3546533,21.9562638 11.6237327,21.9426853 11.8329545,21.7976667 L13.5,20.6416667 L15.1670455,21.79625 C15.3760638,21.9411283 15.6448432,21.9548319 15.8665121,21.8319122 C16.088181,21.7089925 16.2268081,21.469374 16.2272727,21.2083333 L16.2272727,19.0833333 L19.6363636,19.0833333 L19.6363636,27.5833333 L7.36363636,27.5833333 Z" id="Shape"></path>
                <path d="M39.9,5.6 L26.6,5.6 L26.6,3.5 C26.5976857,1.56796279 25.0320372,0.00231428143 23.1,0 L3.5,0 C1.56796279,0.00231428143 0.00231428143,1.56796279 0,3.5 L0,38.5 C0.00231428143,40.4320372 1.56796279,41.9976857 3.5,42 L23.1,42 C25.0320372,41.9976857 26.5976857,40.4320372 26.6,38.5 L26.6,18.2 L28,18.2 L28,21.7 C28.0000604,21.9830771 28.1706093,22.2382538 28.4321418,22.3465746 C28.6936744,22.4548953 28.994704,22.3950355 29.1949,22.1949 L33.1898,18.2 L39.9,18.2 C41.059798,18.2 42,17.259798 42,16.1 L42,7.7 C42,6.54020203 41.059798,5.6 39.9,5.6 Z M8.4,1.4 L18.2,1.4 L18.2,2.8 L8.4,2.8 L8.4,1.4 Z M25.2,38.5 C25.2,39.659798 24.259798,40.6 23.1,40.6 L3.5,40.6 C2.34020203,40.6 1.4,39.659798 1.4,38.5 L1.4,3.5 C1.4,2.34020203 2.34020203,1.4 3.5,1.4 L7,1.4 L7,2.8 C7,3.57319865 7.62680135,4.2 8.4,4.2 L18.2,4.2 C18.9731986,4.2 19.6,3.57319865 19.6,2.8 L19.6,1.4 L23.1,1.4 C24.259798,1.4 25.2,2.34020203 25.2,3.5 L25.2,5.6 L24.5,5.6 C23.340202,5.6 22.4,6.54020203 22.4,7.7 L22.4,16.1 C22.4,17.259798 23.340202,18.2 24.5,18.2 L25.2,18.2 L25.2,38.5 Z M40.6,16.1 C40.6,16.4865993 40.2865993,16.8 39.9,16.8 L32.9,16.8 C32.7143636,16.8000396 32.5363449,16.8738154 32.4051,17.0051 L29.4,20.0102 L29.4,17.5 C29.4,17.1134007 29.0865993,16.8 28.7,16.8 L24.5,16.8 C24.1134007,16.8 23.8,16.4865993 23.8,16.1 L23.8,7.7 C23.8,7.31340068 24.1134007,7 24.5,7 L39.9,7 C40.2865993,7 40.6,7.31340068 40.6,7.7 L40.6,16.1 Z" id="Shape"></path>
                <polygon id="Path" points="27 10 38 10 38 11 27 11"></polygon>
                <polygon id="Path" points="27 13 38 13 38 14 27 14"></polygon>
                <polygon id="Path" points="29 31 35 31 35 32 29 32"></polygon>
                <polygon id="Path" transform="translate(31.837050, 26.584250) rotate(-15.969017) translate(-31.837050, -26.584250) " points="29.2901382 25.884549 34.3839618 25.884549 34.3839618 27.283951 29.2901382 27.283951"></polygon>
                <polygon id="Path" transform="translate(31.876950, 36.394400) rotate(-74.046738) translate(-31.876950, -36.394400) " points="31.1765759 33.8450385 32.5773241 33.8450385 32.5773241 38.9437615 31.1765759 38.9437615"></polygon>
                <polygon id="Path" points="10 33 11 33 11 34 10 34"></polygon>
                <polygon id="Path" points="13 33 14 33 14 34 13 34"></polygon>
                <polygon id="Path" points="16 33 17 33 17 34 16 34"></polygon>
            </g>
        </g>
    </g>
</svg>