<?xml version="1.0" encoding="UTF-8"?>
<svg width="44px" height="44px" viewBox="0 0 44 44" version="1.1" xmlns="http://www.w3.org/2000/svg" xmlns:xlink="http://www.w3.org/1999/xlink">
    <!-- Generator: Sketch 56.3 (81716) - https://sketch.com -->
    <title>icon-checklist</title>
    <desc>Created with Sketch.</desc>
    <g id="Page-1" stroke="none" stroke-width="1" fill="none" fill-rule="evenodd">
        <g id="homepage-V1" transform="translate(-754.000000, -668.000000)" fill="#FFFFFF" fill-rule="nonzero">
            <g id="icon-checklist" transform="translate(754.000000, 668.000000)">
                <path d="M41.8,19.0666774 L38.1333333,19.0666774 L38.1333333,7.33334913 C38.1331042,7.18853099 38.0902573,7.04698307 38.0101333,6.9263493 L34.0442667,0.981951861 C33.6391894,0.367193855 32.9515475,-0.00199301498 32.2153333,9.43386136e-06 L5.918,9.43386136e-06 C5.18286592,-0.00214788438 4.49600391,0.365813749 4.09053333,0.979018529 L0.1232,6.9263493 C0.0430760612,7.04698307 0,7.18853099 0,7.33334913 L0,37.4000028 C0,38.6150288 0.98497355,39.6000019 2.2,39.6000019 L24.9333333,39.6000019 L24.9333333,41.8000009 C24.9333333,43.0150269 25.9183069,44.0000094 27.1333333,44.0000094 L41.8,44.0000094 C43.0150264,44.0000094 44,43.0150269 44,41.8000009 L44,21.2666765 C44,20.0516505 43.0150264,19.0666774 41.8,19.0666774 Z M38.1333333,20.5333434 L39.6,20.5333434 L39.6,22.4297426 L39.3851333,22.214876 C39.0987668,21.9285961 38.6345666,21.9285961 38.3482,22.214876 L38.1333333,22.4297426 L38.1333333,20.5333434 Z M14.6666667,12.4666802 L1.46666667,12.4666802 L1.46666667,8.06668214 L14.6666667,8.06668214 L14.6666667,12.4666802 Z M16.1333333,8.06668214 L22,8.06668214 L22,17.5406114 L19.525,15.5606122 C19.2570893,15.3461121 18.8762441,15.3461121 18.6083333,15.5606122 L16.1333333,17.5406114 L16.1333333,8.06668214 Z M23.4666667,8.06668214 L36.6666667,8.06668214 L36.6666667,12.4666802 L23.4666667,12.4666802 L23.4666667,8.06668214 Z M5.313,1.78935151 C5.44751534,1.58683566 5.67488306,1.46557293 5.918,1.4666774 L32.2153333,1.4666774 C32.4596897,1.46588137 32.6879896,1.588303 32.8225333,1.79228485 L36.0294,6.60001611 L2.10393333,6.60001611 L5.313,1.78935151 Z M2.2,38.1333359 C1.79499118,38.1333359 1.46666667,37.8050115 1.46666667,37.4000028 L1.46666667,13.9333463 L14.6666667,13.9333463 L14.6666667,19.0666774 C14.6665608,19.3486758 14.8281662,19.6057539 15.0823333,19.7279105 C15.3365004,19.8500671 15.6381983,19.8156595 15.8583333,19.6394105 L19.0666667,17.0720116 L22.275,19.6386772 C22.4950317,19.8148435 22.7965607,19.8493082 23.0506696,19.727336 C23.3047784,19.6053638 23.4664906,19.3485434 23.4666667,19.0666774 L23.4666667,13.9333463 L36.6666667,13.9333463 L36.6666667,19.0666774 L27.1333333,19.0666774 C25.9183069,19.0666774 24.9333333,20.0516505 24.9333333,21.2666765 L24.9333333,38.1333359 L2.2,38.1333359 Z M42.5333333,41.8000009 C42.5333333,42.2050096 42.2050088,42.5333434 41.8,42.5333434 L27.1333333,42.5333434 C26.7283245,42.5333434 26.4,42.2050096 26.4,41.8000009 L26.4,21.2666765 C26.4,20.8616678 26.7283245,20.5333434 27.1333333,20.5333434 L36.6666667,20.5333434 L36.6666667,24.2000085 C36.66673,24.4965654 36.8454002,24.7638933 37.1193867,24.8773721 C37.3933731,24.9908509 37.7087375,24.9281407 37.9184667,24.718475 L38.8666667,23.7702754 L39.8148667,24.718475 C39.9523613,24.8560111 40.1388571,24.9333 40.3333333,24.9333415 C40.4297329,24.9336529 40.5252234,24.9147044 40.6142,24.8776082 C40.8881665,24.7640176 41.0667413,24.4965897 41.0666667,24.2000085 L41.0666667,20.5333434 L41.8,20.5333434 C42.2050088,20.5333434 42.5333333,20.8616678 42.5333333,21.2666765 L42.5333333,41.8000009 Z" id="Shape"></path>
                <path d="M29.8256002,29.3081291 L28.9536013,28.4018397 L28,29.3929404 L29.3487996,30.7947802 C29.6121526,31.0684066 30.0390478,31.0684066 30.3024009,30.7947802 L33,27.9911007 L32.0463987,27 L29.8256002,29.3081291 Z" id="Path"></path>
                <path d="M29.8256002,37.3081291 L28.9536013,36.4018397 L28,37.3929404 L29.3487996,38.7947802 C29.6121526,39.0684066 30.0390478,39.0684066 30.3024009,38.7947802 L33,35.9911007 L32.0463987,35 L29.8256002,37.3081291 Z" id="Path"></path>
                <polygon id="Path" points="35 30 41 30 41 31 35 31"></polygon>
                <polygon id="Path" points="35 38 41 38 41 39 35 39"></polygon>
                <polygon id="Path" points="35 35 41 35 41 36 35 36"></polygon>
                <polygon id="Path" points="35 27 36 27 36 28 35 28"></polygon>
                <polygon id="Path" points="38 27 41 27 41 28 38 28"></polygon>
            </g>
        </g>
    </g>
</svg>