<?xml version="1.0" encoding="UTF-8"?>
<svg width="50px" height="54px" viewBox="0 0 50 54" version="1.1" xmlns="http://www.w3.org/2000/svg" xmlns:xlink="http://www.w3.org/1999/xlink">
    <!-- Generator: Sketch 56.3 (81716) - https://sketch.com -->
    <title>icon-liability</title>
    <desc>Created with Sketch.</desc>
    <g id="Page-1" stroke="none" stroke-width="1" fill="none" fill-rule="evenodd">
        <g id="homepage-V1" transform="translate(-1035.000000, -663.000000)" fill="#FFFFFF" fill-rule="nonzero">
            <g id="icon-liability" transform="translate(1035.000000, 663.000000)">
                <rect id="Rectangle" x="24" y="8" width="2" height="2"></rect>
                <polygon id="Rectangle" transform="translate(11.800418, 13.962475) rotate(-45.000000) translate(-11.800418, -13.962475) " points="10.9115286 13.0735856 12.6784663 13.0844258 12.6893064 14.8513634 10.9223687 14.8405233"></polygon>
                <rect id="Rectangle" x="5" y="26" width="2" height="2"></rect>
                <polygon id="Rectangle" transform="translate(11.800113, 40.038466) rotate(-45.000000) translate(-11.800113, -40.038466) " points="10.9112239 39.1495773 12.6781616 39.1604174 12.6890017 40.9273551 10.922064 40.916515"></polygon>
                <rect id="Rectangle" x="24" y="44" width="2" height="2"></rect>
                <polygon id="Rectangle" transform="translate(38.200176, 40.037525) rotate(-45.000000) translate(-38.200176, -40.037525) " points="37.3112874 39.1486366 39.078225 39.1594767 39.0890651 40.9264144 37.3221275 40.9155742"></polygon>
                <rect id="Rectangle" x="43" y="26" width="2" height="2"></rect>
                <polygon id="Rectangle" transform="translate(38.199592, 13.961534) rotate(-45.000000) translate(-38.199592, -13.961534) " points="37.3107032 13.0726449 39.0776409 13.083485 39.088481 14.8504227 37.3215433 14.8395826"></polygon>
                <path d="M26.9682222,2.4581373 L28.2233654,1.23213366 L26.9520846,0 L24.2624921,2.62715066 C23.9125026,2.96911797 23.9125026,3.52344702 24.2624921,3.86541433 L26.9520846,6.49256499 L28.2197792,5.25430132 L27.1735277,4.23233971 C38.729092,5.33608295 47.6912301,14.5784042 48.1929921,25.9089352 C48.694754,37.2394661 40.5831373,47.203183 29.1683089,49.2774649 L29.4937496,51 C41.8547293,48.750884 50.6054036,37.9159493 49.967237,25.650079 C49.3290705,13.3842087 39.4989482,3.47162656 26.9682222,2.4581373 Z" id="Path"></path>
                <path d="M23.0524031,47.5208854 L21.7850962,48.7554182 L22.8310277,49.7743007 C11.1208354,48.6588454 2.10137656,39.2145496 1.80362628,27.756461 C1.50587601,16.2983725 10.0232577,6.42162962 21.6605165,4.73044133 L21.3979133,3 C8.7914958,4.82933133 -0.405070437,15.5734961 0.0137465886,27.982695 C0.432563615,40.391894 10.3337288,50.5244073 23.0362705,51.5431575 L21.7815111,52.7654672 L23.0488181,54 L25.7375882,51.3807649 C26.0874706,51.0398279 26.0874706,50.487169 25.7375882,50.1462321 L23.0524031,47.5208854 Z" id="Path"></path>
                <path d="M25,11 C16.163444,11 9,18.163444 9,27 C9,35.836556 16.163444,43 25,43 C33.836556,43 41,35.836556 41,27 C40.9897137,18.1677083 33.8322917,11.0102863 25,11 Z M25,41.2222222 C17.1452836,41.2222222 10.7777778,34.8547164 10.7777778,27 C10.7777778,19.1452836 17.1452836,12.7777778 25,12.7777778 C32.8547164,12.7777778 39.2222222,19.1452836 39.2222222,27 C39.2129159,34.8508584 32.8508584,41.2129159 25,41.2222222 Z" id="Shape"></path>
                <path d="M33.1818182,18 L16.8181818,18 C15.8140277,18 15,18.8058875 15,19.8 L15,34.2 C15,35.1941125 15.8140277,36 16.8181818,36 L33.1818182,36 C34.1859723,36 35,35.1941125 35,34.2 L35,19.8 C35,18.8058875 34.1859723,18 33.1818182,18 Z M33.1818182,21.6 L27.7272727,21.6 L27.7272727,19.8 L33.1818182,19.8 L33.1818182,21.6 Z M25.9090909,19.8 L25.9090909,25.2 L24.0909091,25.2 L24.0909091,19.8 L25.9090909,19.8 Z M22.2727273,19.8 L22.2727273,21.6 L16.8181818,21.6 L16.8181818,19.8 L22.2727273,19.8 Z M16.8181818,34.2 L16.8181818,23.4 L22.2727273,23.4 L22.2727273,26.1 C22.2727273,26.5970563 22.6797411,27 23.1818182,27 L26.8181818,27 C27.3202589,27 27.7272727,26.5970563 27.7272727,26.1 L27.7272727,23.4 L33.1818182,23.4 L33.1818182,34.2 L16.8181818,34.2 Z" id="Shape"></path>
                <rect id="Rectangle" x="27" y="30" width="4" height="2"></rect>
                <rect id="Rectangle" x="24" y="30" width="2" height="2"></rect>
            </g>
        </g>
    </g>
</svg>