<?xml version="1.0" encoding="UTF-8"?>
<svg width="44px" height="45px" viewBox="0 0 44 45" version="1.1" xmlns="http://www.w3.org/2000/svg" xmlns:xlink="http://www.w3.org/1999/xlink">
    <!-- Generator: Sketch 56.3 (81716) - https://sketch.com -->
    <title>icon-supply-chain</title>
    <desc>Created with Sketch.</desc>
    <g id="Page-1" stroke="none" stroke-width="1" fill="none" fill-rule="evenodd">
        <g id="homepage-V1" transform="translate(-139.000000, -1500.000000)" fill="#D32E38" fill-rule="nonzero">
            <g id="icon-supply-chain" transform="translate(139.000000, 1500.000000)">
                <path d="M42.5806452,31.0272014 L39.4289677,31.0272014 L34.0134194,22.2344277 C37.7540988,16.2940936 36.5836117,8.5133608 31.2604569,3.93429749 C25.9373021,-0.644765828 18.0626979,-0.644765828 12.7395431,3.93429749 C7.41638825,8.5133608 6.24590122,16.2940936 9.98658065,22.2344277 L4.57103226,31.0272014 L1.41935484,31.0272014 C0.635466807,31.0272014 0,31.6621464 0,32.4453908 L0,40.9545267 C0,41.737771 0.635466807,42.372716 1.41935484,42.372716 L5.67741935,42.372716 L5.67741935,43.0818107 L4.96774194,43.0818107 C4.57579792,43.0818107 4.25806452,43.3992832 4.25806452,43.7909053 C4.25806452,44.1825275 4.57579792,44.5 4.96774194,44.5 L12.0645161,44.5 C12.4564601,44.5 12.7741935,44.1825275 12.7741935,43.7909053 C12.7741935,43.3992832 12.4564601,43.0818107 12.0645161,43.0818107 L11.3548387,43.0818107 L11.3548387,42.372716 L15.6129032,42.372716 C16.3967913,42.372716 17.0322581,41.737771 17.0322581,40.9545267 L17.0322581,37.4090534 L26.9677419,37.4090534 L26.9677419,40.9545267 C26.9677419,41.737771 27.6032087,42.372716 28.3870968,42.372716 L32.6451613,42.372716 L32.6451613,43.0818107 L31.9354839,43.0818107 C31.5435399,43.0818107 31.2258065,43.3992832 31.2258065,43.7909053 C31.2258065,44.1825275 31.5435399,44.5 31.9354839,44.5 L39.0322581,44.5 C39.4242021,44.5 39.7419355,44.1825275 39.7419355,43.7909053 C39.7419355,43.3992832 39.4242021,43.0818107 39.0322581,43.0818107 L38.3225806,43.0818107 L38.3225806,42.372716 L42.5806452,42.372716 C43.3645332,42.372716 44,41.737771 44,40.9545267 L44,32.4453908 C44,31.6621464 43.3645332,31.0272014 42.5806452,31.0272014 L42.5806452,31.0272014 Z M42.5806452,38.8272427 L28.3870968,38.8272427 L28.3870968,32.4453908 L42.5806452,32.4453908 L42.5806452,38.8272427 Z M22,1.95432036 C29.0549923,1.95432036 34.7741935,7.66882524 34.7741935,14.7180243 C34.7741935,21.7672233 29.0549923,27.4817281 22,27.4817281 C14.9450077,27.4817281 9.22580645,21.7672233 9.22580645,14.7180243 C9.23401894,7.67222697 14.9484122,1.96252611 22,1.95432036 Z M1.41935484,32.4453908 L15.6129032,32.4453908 L15.6129032,38.8272427 L1.41935484,38.8272427 L1.41935484,32.4453908 Z M9.93548387,43.0818107 L7.09677419,43.0818107 L7.09677419,42.372716 L9.93548387,42.372716 L9.93548387,43.0818107 Z M1.41935484,40.9545267 L1.41935484,40.245432 L15.6129032,40.245432 L15.6129032,40.9545267 L1.41935484,40.9545267 Z M17.0322581,35.9908641 L17.0322581,32.4453908 C17.0322581,31.6621464 16.3967913,31.0272014 15.6129032,31.0272014 L6.23735484,31.0272014 L10.8750968,23.4980343 C13.5576885,26.9085179 17.6587073,28.8997889 22,28.8997889 C26.3412927,28.8997889 30.4423115,26.9085179 33.1249032,23.4980343 L37.7626452,31.0272014 L28.3870968,31.0272014 C27.6032087,31.0272014 26.9677419,31.6621464 26.9677419,32.4453908 L26.9677419,35.9908641 L17.0322581,35.9908641 Z M36.9032258,43.0818107 L34.0645161,43.0818107 L34.0645161,42.372716 L36.9032258,42.372716 L36.9032258,43.0818107 Z M28.3870968,40.9545267 L28.3870968,40.245432 L42.5806452,40.245432 L42.5806452,40.9545267 L28.3870968,40.9545267 Z" id="Shape"></path>
                <path d="M33.2857143,32.5 L29.7142857,32.5 C29.3197966,32.5 29,32.9477153 29,33.5 C29,34.0522847 29.3197966,34.5 29.7142857,34.5 L33.2857143,34.5 C33.6802034,34.5 34,34.0522847 34,33.5 C34,32.9477153 33.6802034,32.5 33.2857143,32.5 Z" id="Path"></path>
                <path d="M36,32.5 L35,32.5 C34.4477153,32.5 34,32.9477153 34,33.5 C34,34.0522847 34.4477153,34.5 35,34.5 L36,34.5 C36.5522847,34.5 37,34.0522847 37,33.5 C37,32.9477153 36.5522847,32.5 36,32.5 Z" id="Path"></path>
                <path d="M30.7245,7.34958957 C30.6736668,7.31310264 30.6203573,7.28090469 30.5650357,7.25327623 L21.7436072,3.54891679 C21.5866958,3.4836944 21.4133043,3.4836944 21.2563929,3.54891679 L12.4349643,7.25327623 C12.3796428,7.28090469 12.3263332,7.31310264 12.2755,7.34958957 C12.1030964,7.48857261 12.0009585,7.70830731 12,7.94228708 L12,19.7962373 C12,20.1215615 12.1942725,20.4088655 12.4790714,20.5045108 L21.2882857,23.4635531 L21.2991429,23.4672575 C21.4291375,23.5109142 21.5681482,23.5109142 21.6981429,23.4672575 L21.709,23.4635531 L30.5182143,20.5045108 C30.8040879,20.4099318 30.9996933,20.1223722 31,19.7962373 L31,7.94228708 C30.9990415,7.70830731 30.8969036,7.48857261 30.7245,7.34958957 L30.7245,7.34958957 Z M21.5,5.03140144 L28.2456786,7.8681999 L21.5,10.1308226 L14.7543214,7.8681999 L21.5,5.03140144 Z M13.3571429,8.94542762 L20.8214286,11.453279 L20.8214286,21.7565843 L13.3571429,19.248733 L13.3571429,8.94542762 Z M29.6428572,19.248733 L22.1785714,21.7565843 L22.1785714,11.453279 L29.6428572,8.94542762 L29.6428572,19.248733 Z" id="Shape"></path>
            </g>
        </g>
    </g>
</svg>