<?xml version="1.0" encoding="UTF-8"?>
<svg width="44px" height="44px" viewBox="0 0 44 44" version="1.1" xmlns="http://www.w3.org/2000/svg" xmlns:xlink="http://www.w3.org/1999/xlink">
    <!-- Generator: Sketch 56.3 (81716) - https://sketch.com -->
    <title>icon-implementation</title>
    <desc>Created with Sketch.</desc>
    <g id="Page-1" stroke="none" stroke-width="1" fill="none" fill-rule="evenodd">
        <g id="homepage-V1" transform="translate(-499.000000, -1775.000000)" fill="#D32E38" fill-rule="nonzero">
            <g id="icon-implementation" transform="translate(499.000000, 1775.000000)">
                <path d="M3.62745098,44 L36.2745098,44 C36.675159,44 37,43.671038 37,43.2653061 L37,24.1632653 L35.5490196,24.1632653 L35.5490196,42.5306122 L3.62745098,42.5306122 C2.42550362,42.5306122 1.45098039,41.5437261 1.45098039,40.3265306 C1.45098039,39.1093352 2.42550362,38.122449 3.62745098,38.122449 L5.07843137,38.122449 C5.47908052,38.122449 5.80392157,37.7934869 5.80392157,37.3877551 L5.80392157,15.3469388 L17.4117647,15.3469388 L17.4117647,13.877551 L5.80392157,13.877551 L5.80392157,8.73469388 C5.80392157,8.32896203 5.47908052,8 5.07843137,8 L3.62745098,8 C1.62491386,8.00251118 0.00247970735,9.64552777 0,11.6734694 L0,40.3265306 C0.00247970735,42.3544722 1.62491386,43.9974888 3.62745098,44 Z M1.45098039,14.6122449 L1.45098039,11.6734694 C1.45098039,10.4562739 2.42550362,9.46938776 3.62745098,9.46938776 L4.35294118,9.46938776 L4.35294118,36.6530612 L3.62745098,36.6530612 C2.84244792,36.651985 2.07834523,36.9099171 1.45098039,37.3877551 L1.45098039,14.6122449 Z" id="Shape"></path>
                <path d="M16.3888889,18 L7.72222222,18 C7.3233778,18 7,18.3134277 7,18.7 L7,24.3 C7,24.6865723 7.3233778,25 7.72222222,25 L16.3888889,25 C16.7877333,25 17.1111111,24.6865723 17.1111111,24.3 L17.1111111,22.2 L20,22.2 L20,20.8 L17.1111111,20.8 L17.1111111,18.7 C17.1111111,18.3134277 16.7877333,18 16.3888889,18 Z M15.6666667,23.6 L8.44444444,23.6 L8.44444444,19.4 L15.6666667,19.4 L15.6666667,23.6 Z" id="Shape"></path>
                <path d="M24.6111111,38 L33.2777778,38 C33.6766222,38 34,37.6641846 34,37.25 L34,31.25 C34,30.8358154 33.6766222,30.5 33.2777778,30.5 L29.6666667,30.5 L29.6666667,26 L28.2222222,26 L28.2222222,30.5 L24.6111111,30.5 C24.2122667,30.5 23.8888889,30.8358154 23.8888889,31.25 L23.8888889,33.5 L18.1111111,33.5 L18.1111111,31.25 C18.1111111,30.8358154 17.7877333,30.5 17.3888889,30.5 L8.72222222,30.5 C8.3233778,30.5 8,30.8358154 8,31.25 L8,37.25 C8,37.6641846 8.3233778,38 8.72222222,38 L17.3888889,38 C17.7877333,38 18.1111111,37.6641846 18.1111111,37.25 L18.1111111,35 L23.8888889,35 L23.8888889,37.25 C23.8888889,37.6641846 24.2122667,38 24.6111111,38 Z M25.3333333,32 L32.5555556,32 L32.5555556,36.5 L25.3333333,36.5 L25.3333333,32 Z M16.6666667,36.5 L9.44444444,36.5 L9.44444444,32 L16.6666667,32 L16.6666667,36.5 Z" id="Shape"></path>
                <path d="M31.5,6 C27.9100477,6 25,8.91004774 25,12.5 C25,16.0899523 27.9100477,19 31.5,19 C35.0899523,19 38,16.0899523 38,12.5 C37.9961209,8.91181096 35.088189,6.00387915 31.5,6 Z M31.5,17.5555556 C28.7077365,17.5555556 26.4444444,15.2922635 26.4444444,12.5 C26.4444444,9.7077365 28.7077365,7.44444444 31.5,7.44444444 C34.2922635,7.44444444 36.5555556,9.7077365 36.5555556,12.5 C36.5523817,15.2908528 34.2908528,17.5523817 31.5,17.5555556 Z" id="Shape"></path>
                <path d="M43.2647059,15.4411765 C43.6707692,15.4411765 44,15.1119457 44,14.7058824 L44,10.2941176 C44,9.88805432 43.6707692,9.55882353 43.2647059,9.55882353 L40.5859806,9.55882353 C40.4290844,9.07628676 40.2344899,8.60667509 40.0043515,8.15429688 L41.9014677,6.26400221 C42.0396944,6.12613456 42.117604,5.93872068 42.117604,5.74340818 C42.117604,5.54809568 42.0396944,5.36068189 41.9014677,5.22281425 L38.77934,2.09781425 C38.6414723,1.9599466 38.4544175,1.88239605 38.2594641,1.88239605 C38.0645106,1.88275506 37.8774558,1.96030561 37.7395881,2.09853226 L35.8457031,3.99564853 C35.3933249,3.76551011 34.9237132,3.57127472 34.4411765,3.41401939 L34.4411765,0.735294118 C34.4411765,0.32923079 34.1119457,0 33.7058824,0 L29.2941176,0 C28.8880543,0 28.5588235,0.32923079 28.5588235,0.735294118 L28.5588235,3.41401939 C28.0762868,3.57127472 27.6066751,3.76551011 27.1542969,3.99564853 L25.2632841,2.09853226 C25.1254165,1.96030561 24.9383617,1.88275506 24.7434082,1.88239605 C24.5484548,1.88239605 24.3613999,1.9599466 24.2235323,2.09781425 L21.0978142,5.22066002 C20.9595875,5.35852767 20.8816779,5.54594154 20.8816779,5.74125404 C20.8816779,5.93656654 20.9595875,6.12398033 21.0978142,6.26184798 L22.9949305,8.15214265 C22.7647921,8.60523897 22.5705566,9.07556875 22.4140194,9.55882353 L19.7352941,9.55882353 C19.3292308,9.55882353 19,9.88805432 19,10.2941176 L19,14.7058824 C19,15.1119457 19.3292308,15.4411765 19.7352941,15.4411765 L22.4140194,15.4411765 C22.5709156,15.9237132 22.7655101,16.3933249 22.9956485,16.8457031 L21.0985323,18.7359978 C20.9599466,18.8738654 20.8820369,19.0616383 20.8820369,19.2569508 C20.8820369,19.4526223 20.9599466,19.6400362 21.0985323,19.7779039 L24.22066,22.8950051 C24.5078843,23.1818704 24.9731876,23.1818704 25.2604119,22.8950051 L27.1514246,21.0043515 C27.60488,21.2344899 28.0755687,21.4287253 28.5588235,21.5859806 L28.5588235,24.2647059 C28.5588235,24.6707692 28.8880543,25 29.2941176,25 L33.7058824,25 C34.1119457,25 34.4411765,24.6707692 34.4411765,24.2647059 L34.4411765,21.5859806 C34.9240722,21.4287253 35.3936839,21.2344899 35.8464211,21.0043515 L37.7374339,22.8950051 C38.0246582,23.1815114 38.4892435,23.1815114 38.7764677,22.8950051 L41.9014677,19.7771858 C42.0400534,19.6393181 42.1179631,19.4519043 42.1179631,19.2562327 C42.1179631,19.0605612 42.0400534,18.8731474 41.9014677,18.7352798 L40.0043515,16.8449851 C40.2344899,16.3929659 40.4290844,15.9233542 40.5859806,15.4411765 L43.2647059,15.4411765 Z M39.3265022,14.5184686 C39.1329848,15.2505313 38.8418112,15.9531537 38.4601619,16.607307 C38.2917767,16.8963264 38.3395278,17.2625373 38.5764879,17.4984202 L40.3411219,19.2573098 L38.2580279,21.3360955 L36.4998564,19.5757698 C36.2639734,19.3395278 35.8981215,19.2921358 35.6094612,19.4601619 C34.9556669,19.8418112 34.2526856,20.1329848 33.5206227,20.3257841 C33.1967774,20.4101562 32.9709472,20.702407 32.9705882,21.0366642 L32.9705882,23.5294118 L30.0294118,23.5294118 L30.0294118,21.0366642 C30.0294118,20.702766 29.8042997,20.4108743 29.4815314,20.3257841 C28.7494687,20.1329848 28.0464872,19.8418112 27.392693,19.4601619 C27.1040326,19.2921358 26.7381807,19.3395278 26.5022978,19.5757698 L24.7426902,21.3353774 L22.6595961,19.2573098 L24.4242302,17.4984202 C24.6611903,17.2625373 24.7089413,16.8963264 24.5405561,16.607307 C24.1589068,15.9531537 23.8677333,15.2505313 23.6742159,14.5184686 C23.5891257,14.1957003 23.297234,13.9705882 22.9633358,13.9705882 L20.4705882,13.9705882 L20.4705882,11.0294118 L22.9633358,11.0294118 C23.296875,11.0290528 23.5884076,10.8042997 23.6734978,10.4815314 C23.8670152,9.74946866 24.1581888,9.04684632 24.5398381,8.39269301 C24.7082233,8.10367362 24.6604722,7.73746268 24.4235121,7.50157978 L22.6588781,5.74197206 L24.7426902,3.65816002 L26.5022978,5.42279412 C26.7381807,5.65975414 27.1043916,5.70750515 27.393411,5.53911994 C28.0472053,5.15747068 28.7501867,4.86629706 29.4822495,4.67349779 C29.8046588,4.58804862 30.0290528,4.29651599 30.0294118,3.96333585 L30.0294118,1.47058824 L32.9705882,1.47058824 L32.9705882,3.96333585 C32.9705882,4.29723401 33.1957003,4.58912574 33.5184686,4.6742159 C34.2505313,4.86701517 34.9535128,5.15818879 35.607307,5.53983805 C35.8966855,5.70894127 36.2636144,5.66119026 36.4998564,5.42351213 L38.2594641,3.65887812 L40.3432761,5.74269017 L38.578642,7.50229779 C38.341682,7.7381807 38.293931,8.10439164 38.4626752,8.39341103 C38.8439654,9.04756434 39.135139,9.75018667 39.3286563,10.4822495 C39.4137465,10.8039407 39.7042021,11.0283347 40.0366642,11.0294118 L42.5294118,11.0294118 L42.5294118,13.9705882 L40.0366642,13.9705882 C39.703125,13.9709472 39.4115924,14.1957003 39.3265022,14.5184686 L39.3265022,14.5184686 Z" id="Shape"></path>
                <path d="M32,9 C30.3432617,9 29,10.3432617 29,12 C29,13.6567383 30.3432617,15 32,15 C33.6567383,15 35,13.6567383 35,12 C35,10.3432617 33.6567383,9 32,9 Z M32,13.5 C31.1716308,13.5 30.5,12.8283692 30.5,12 C30.5,11.1716308 31.1716308,10.5 32,10.5 C32.8283692,10.5 33.5,11.1716308 33.5,12 C33.5,12.8283692 32.8283692,13.5 32,13.5 Z" id="Shape"></path>
            </g>
        </g>
    </g>
</svg>