<?xml version="1.0" encoding="UTF-8"?>
<svg width="44px" height="48px" viewBox="0 0 44 48" version="1.1" xmlns="http://www.w3.org/2000/svg" xmlns:xlink="http://www.w3.org/1999/xlink">
    <!-- Generator: Sketch 56.3 (81716) - https://sketch.com -->
    <title>icon-transformation</title>
    <desc>Created with Sketch.</desc>
    <g id="Page-1" stroke="none" stroke-width="1" fill="none" fill-rule="evenodd">
        <g id="homepage-V1" transform="translate(-134.000000, -1774.000000)" fill="#D32E38" fill-rule="nonzero">
            <g id="icon-transformation" transform="translate(134.000000, 1774.000000)">
                <rect id="Rectangle" x="21" y="7" width="2" height="2"></rect>
                <polygon id="Rectangle" transform="translate(10.384367, 12.411088) rotate(-45.000000) translate(-10.384367, -12.411088) " points="9.60214519 11.6288663 11.1648552 11.6306007 11.1665896 13.1933107 9.60387961 13.1915763"></polygon>
                <rect id="Rectangle" x="5" y="23" width="2" height="2"></rect>
                <polygon id="Rectangle" transform="translate(10.384099, 35.589748) rotate(-45.000000) translate(-10.384099, -35.589748) " points="9.60187703 34.8075255 11.1645871 34.8092599 11.1663215 36.37197 9.60361145 36.3702355"></polygon>
                <rect id="Rectangle" x="21" y="39" width="2" height="2"></rect>
                <polygon id="Rectangle" transform="translate(33.616155, 35.588912) rotate(-45.000000) translate(-33.616155, -35.588912) " points="32.8339329 34.8066893 34.3966429 34.8084237 34.3983773 36.3711337 32.8356673 36.3693993"></polygon>
                <rect id="Rectangle" x="37" y="23" width="2" height="2"></rect>
                <polygon id="Rectangle" transform="translate(33.615641, 12.410252) rotate(-45.000000) translate(-33.615641, -12.410252) " points="32.8334188 11.62803 34.3961288 11.6297645 34.3978633 13.1924745 32.8351532 13.1907401"></polygon>
                <path d="M23.625735,2.16894468 L24.736054,1.08717676 L23.6114595,0 L21.2322045,2.31807411 C20.9225985,2.61980997 20.9225985,3.10892384 21.2322045,3.41065971 L23.6114595,5.72873382 L24.7328816,4.63614822 L23.8073515,3.73441739 C34.0295814,4.70830849 41.9576267,12.8632978 42.401493,22.8608252 C42.8453593,32.8583525 35.6696984,41.6498673 25.5719655,43.4801161 L25.8598554,45 C36.7945682,43.0154859 44.5355493,33.4552494 43.9710174,22.6324227 C43.4064855,11.8095959 34.710608,3.06319991 23.625735,2.16894468 Z" id="Path"></path>
                <path d="M20.3925105,42.1560927 L19.2714312,43.2695929 L20.1966784,44.1885849 C9.83766207,43.182488 1.85891003,34.6641036 1.59551556,24.329357 C1.33212109,13.9946105 8.86672795,5.08617573 19.1612261,3.56079022 L18.9289233,2 C7.77709244,3.64998512 -0.358331541,13.3408004 0.0121604438,24.5334112 C0.382652428,35.726022 9.14137546,44.8651517 20.3782393,45.7840244 L19.2682599,46.8864998 L20.3893391,48 L22.7678665,45.6375526 C23.0773778,45.3300409 23.0773778,44.8315642 22.7678665,44.5240525 L20.3925105,42.1560927 Z" id="Path"></path>
                <path d="M22,10 C14.2680135,10 8,16.2680135 8,24 C8,31.7319865 14.2680135,38 22,38 C29.7319865,38 36,31.7319865 36,24 C35.9909994,16.2717447 29.7282553,10.0090006 22,10 Z M22,36.4444444 C15.1271231,36.4444444 9.55555556,30.8728769 9.55555556,24 C9.55555556,17.1271231 15.1271231,11.5555556 22,11.5555556 C28.8728769,11.5555556 34.4444444,17.1271231 34.4444444,24 C34.4363014,30.8695011 28.8695011,36.4363014 22,36.4444444 Z" id="Shape"></path>
                <path d="M29.4545455,16 L15.5454545,16 C14.6919236,16 14,16.7163444 14,17.6 L14,30.4 C14,31.2836556 14.6919236,32 15.5454545,32 L29.4545455,32 C30.3080764,32 31,31.2836556 31,30.4 L31,17.6 C31,16.7163444 30.3080764,16 29.4545455,16 Z M29.4545455,19.2 L24.8181818,19.2 L24.8181818,17.6 L29.4545455,17.6 L29.4545455,19.2 Z M23.2727273,17.6 L23.2727273,22.4 L21.7272727,22.4 L21.7272727,17.6 L23.2727273,17.6 Z M20.1818182,17.6 L20.1818182,19.2 L15.5454545,19.2 L15.5454545,17.6 L20.1818182,17.6 Z M15.5454545,30.4 L15.5454545,20.8 L20.1818182,20.8 L20.1818182,23.2 C20.1818182,23.6418278 20.52778,24 20.9545455,24 L24.0454545,24 C24.47222,24 24.8181818,23.6418278 24.8181818,23.2 L24.8181818,20.8 L29.4545455,20.8 L29.4545455,30.4 L15.5454545,30.4 Z" id="Shape"></path>
                <rect id="Rectangle" x="24" y="27" width="3" height="2"></rect>
                <rect id="Rectangle" x="21" y="27" width="2" height="2"></rect>
            </g>
        </g>
    </g>
</svg>