<?xml version="1.0" encoding="UTF-8"?>
<svg width="44px" height="44px" viewBox="0 0 44 44" version="1.1" xmlns="http://www.w3.org/2000/svg" xmlns:xlink="http://www.w3.org/1999/xlink">
    <!-- Generator: Sketch 56.3 (81716) - https://sketch.com -->
    <title>icon-integration</title>
    <desc>Created with Sketch.</desc>
    <g id="Page-1" stroke="none" stroke-width="1" fill="none" fill-rule="evenodd">
        <g id="homepage-V1" transform="translate(-495.000000, -1501.000000)" fill="#D32E38" fill-rule="nonzero">
            <g id="icon-integration" transform="translate(495.000000, 1501.000000)">
                <path d="M22.7096746,27.4126421 C22.5443547,27.0642015 22.1275548,26.9155612 21.7790261,27.0810532 C21.2119431,27.3501613 20.6173789,27.5726032 20.0119259,27.741984 C19.7586311,27.8128474 19.566694,28.0198204 19.5151882,28.2777805 L18.776131,31.9728747 C18.7031932,32.3377348 18.3801581,32.6026083 18.008037,32.6026083 L15.991963,32.6026083 C15.6198419,32.6026083 15.2968932,32.3378212 15.223869,31.9728747 L14.4848118,28.2777805 C14.4332195,28.0198204 14.241196,27.8128474 13.9880741,27.741984 C13.1326967,27.502604 12.3072203,27.1605585 11.5345461,26.7253535 C11.3052759,26.5962438 11.0229443,26.6068733 10.8041308,26.7527482 L7.66832304,28.8432185 C7.35876939,29.0495866 6.94309294,29.0083648 6.67986,28.7453061 L5.25428855,27.3196554 C4.99114203,27.0565103 4.9500929,26.6408359 5.15637558,26.3311974 L7.2468565,23.1954056 C7.39281856,22.9765068 7.40344813,22.6942631 7.27425139,22.464994 C6.83895778,21.6922373 6.49691051,20.8666787 6.25761569,20.0114784 C6.18675193,19.758185 5.9797779,19.5662489 5.72181653,19.5147433 L2.02670354,18.7756899 C1.66184159,18.7027524 1.39696669,18.379719 1.39696669,18.0075998 L1.39696669,15.991536 C1.39696669,15.6194168 1.66175517,15.2964698 2.02670354,15.2234459 L5.72181653,14.4843925 C5.9797779,14.4328005 6.18675193,14.240778 6.25761569,13.9876574 C6.49699693,13.1322843 6.8390442,12.3068121 7.27425139,11.5341418 C7.40336171,11.3049592 7.39273214,11.022629 7.2468565,10.8037302 L5.15654842,7.66828405 C4.95017932,7.35864556 4.99131487,6.94305765 5.25446139,6.67982604 L6.68003284,5.25426184 C6.94317936,4.99111666 7.35894223,4.95006774 7.66849587,5.15634937 L10.8043037,7.24681966 C11.0231171,7.39278098 11.3055352,7.40332407 11.5347189,7.27421442 C12.3073932,6.83900944 13.1328696,6.4969639 13.988247,6.25758388 C14.2415417,6.18672048 14.4334788,5.9797475 14.4849847,5.72178745 L15.2240418,2.02669324 C15.2969796,1.66183315 15.6200147,1.39695958 15.9921359,1.39695958 L18.0082098,1.39695958 C18.380331,1.39695958 18.7032796,1.66174673 18.7763038,2.02669324 L19.515361,5.72178745 C19.5669533,5.9797475 19.7589768,6.18672048 20.0120987,6.25758388 C20.8674761,6.4969639 21.6929525,6.83900944 22.4656268,7.27421442 C22.6948969,7.40332407 22.9772285,7.39269456 23.196042,7.24681966 L26.3318498,5.15634937 C26.6414034,4.94998132 27.0569935,4.99120308 27.3203128,5.25426184 L28.7458843,6.67982604 C29.0090308,6.94297123 29.0500799,7.35864556 28.8437973,7.66828405 L26.7533163,10.8040759 C26.6073543,11.0229747 26.5967247,11.3052184 26.7259214,11.5344874 C27.1611286,12.3071578 27.5031759,13.13263 27.7425571,13.988003 C27.8134209,14.2412965 28.0203949,14.4332326 28.2783563,14.4847382 L31.9734693,15.2237916 C32.3383312,15.296729 32.6032062,15.6197625 32.6032062,15.9918817 L32.6032062,18.0079454 C32.6032062,18.3800647 32.3384177,18.7030117 31.9734693,18.7760356 L28.2783563,19.515089 C28.0203949,19.566681 27.8134209,19.7587035 27.7425571,20.011997 C27.5689409,20.6324838 27.3398436,21.2411313 27.0615737,21.8210877 C26.8946118,22.1689233 27.0413516,22.5862396 27.389189,22.7531143 C27.7370263,22.9201618 28.1544311,22.7733362 28.3212202,22.4255007 C28.5723545,21.9020621 28.7879704,21.357883 28.9643521,20.8028152 L32.2475046,20.1462053 C33.2628441,19.9429484 34,19.0436745 34,18.007859 L34,15.9917953 C34,14.9559798 33.2628441,14.0567924 32.2470725,13.8535354 L28.9640064,13.1969255 C28.7486497,12.5190566 28.4757378,11.860027 28.1487275,11.2292563 L30.0060493,8.44320126 C30.5805643,7.58134676 30.4660589,6.42419929 29.7335695,5.69171371 L28.3079981,4.26614951 C27.5754224,3.53366393 26.418269,3.41924546 25.5564966,3.9936711 L22.7704273,5.85098352 C22.1396535,5.52406128 21.4806205,5.25106435 20.8027481,5.03570875 L20.1461349,1.75265928 C19.9431362,0.737152196 19.0438578,0 18.008037,0 L15.991963,0 C14.9561422,0 14.0569503,0.737152196 13.8536923,1.75291854 L13.197079,5.035968 C12.5192067,5.25132361 11.8601737,5.52423411 11.2293998,5.85124278 L8.44350344,3.99393035 C7.58173098,3.4194183 6.42449121,3.53383677 5.6920019,4.26640877 L4.26643045,5.69197297 C3.53402757,6.42445855 3.41943568,7.5815196 3.99395065,8.44346051 L5.85127252,11.2295156 C5.52434862,11.8602862 5.2513503,12.5192294 5.0359936,13.1971848 L1.75284103,13.8537947 C0.737155943,14.0568788 0,14.9561526 0,15.9919681 L0,18.0080319 C0,19.0438474 0.737155943,19.9430348 1.75292745,20.1462917 L5.0359936,20.8029016 C5.25126388,21.4806841 5.5242622,22.1397138 5.85127252,22.7705708 L3.99395065,25.5566259 C3.41943568,26.4184804 3.53394115,27.5756279 4.26643045,28.3081135 L5.6920019,29.7336777 C6.42449121,30.4661632 7.58164456,30.5805817 8.44350344,30.0061561 L11.2295727,28.1488436 C11.8603465,28.4757659 12.5192931,28.7487628 13.1972519,28.9641184 L13.8538651,32.2473407 C14.0569503,33.2627614 14.9562287,34 15.9920494,34 L18.0081234,34 C19.0439442,34 19.9431362,33.2628478 20.1463942,32.2470815 L20.8030074,28.964032 C21.3413127,28.7930092 21.8696798,28.5849992 22.3782569,28.3435452 C22.7267856,28.1779668 22.8752539,27.7612554 22.7096746,27.4126421 Z" id="Path"></path>
                <path d="M22.2708305,20.9216008 C22.3686971,20.9748034 22.4731987,21 22.5762074,21 C22.8197127,21 23.0546754,20.8590921 23.1733593,20.6139737 C23.7141135,19.4976845 24,18.2403995 24,16.9780225 C24,12.5789736 20.619042,9 16.4631965,9 C14.4861261,9 12.61787,9.80436039 11.2024541,11.2651498 C10.937302,11.5387131 10.9319111,11.988126 11.1903452,12.2687127 C11.4487792,12.5492995 11.8732547,12.5551816 12.1384068,12.2815305 C13.3019407,11.0808721 14.8377822,10.4195266 16.4630306,10.4195266 C19.879403,10.4195266 22.6588963,13.361649 22.6588963,16.9781103 C22.6588963,18.0311007 22.4304857,19.0365073 21.9800507,19.9664118 C21.8111894,20.3149504 21.9413188,20.7426784 22.2708305,20.9216008 Z" id="Path"></path>
                <path d="M10.3398167,14.0386348 C9.96752782,13.9116911 9.56217994,14.1078292 9.4340872,14.476691 C9.14607686,15.3064992 9,16.1759717 9,17.0607335 C9,21.4384999 12.5938259,25 17.0111303,25 C18.7100122,25 20.3331668,24.4796444 21.7052491,23.4949353 C22.0240264,23.2661221 22.0953458,22.8244839 21.8645496,22.5085662 C21.6337534,22.1926485 21.1880295,22.1219689 20.8692522,22.3506947 C19.7418949,23.1596222 18.4078085,23.5872818 17.0110422,23.5872818 C13.3795731,23.5872818 10.4252412,20.6593644 10.4252412,17.0605587 C10.4252412,16.3324453 10.5451353,15.6175243 10.7817499,14.9359773 C10.9097545,14.5672029 10.7119292,14.1654038 10.3398167,14.0386348 Z" id="Path"></path>
                <path d="M42.6450864,30.1796026 L40.6091016,29.772439 C40.4850805,29.4034224 40.3357152,29.0431152 40.1625733,28.694827 L41.3144719,26.9670596 C41.7585617,26.3007918 41.6700747,25.4063382 41.1038798,24.8402283 L40.1597863,23.8961311 C39.5935914,23.3300212 38.6991412,23.2414468 38.032963,23.6855383 L36.3052021,24.8374413 C35.9569152,24.6642987 35.5966094,24.5149328 35.2275943,24.3909983 L34.8204321,22.3550058 C34.6634026,21.5698549 33.9683093,21 33.1676588,21 L31.8324283,21 C31.0318649,21 30.3366845,21.5698549 30.179655,22.3550058 L29.7724928,24.3909983 C29.4034777,24.5150199 29.0431719,24.6643858 28.694885,24.8374413 L26.9671241,23.6855383 C26.3008588,23.2415339 25.4064086,23.3299341 24.8403008,23.8961311 L23.8962073,24.8402283 C23.3300124,25.4064253 23.2415254,26.3008789 23.6856152,26.9670596 L24.8375138,28.694827 C24.5994002,29.1736689 24.4064881,29.6751552 24.2622613,30.1908377 C24.1574878,30.5653412 24.3761795,30.9537797 24.7505945,31.0586407 C25.1250966,31.1634145 25.5135336,30.944809 25.6183941,30.5703055 C25.7716787,30.0223112 25.990806,29.4936516 26.2695052,28.9988716 C26.3996228,28.7678116 26.3889103,28.4832761 26.2418965,28.2627545 L24.8573711,26.1860021 C24.7842997,26.076351 24.7988443,25.9291624 24.8920344,25.835972 L25.8361279,24.8918749 C25.9293179,24.7987716 26.076506,24.784314 26.1861567,24.8572116 L28.2629012,26.2417422 C28.4834219,26.3888437 28.7679564,26.3994691 28.9990155,26.2693509 C29.4938807,25.9906507 30.0224512,25.7715226 30.5704435,25.6182374 C30.8257145,25.5468205 31.0191492,25.3382308 31.0710569,25.0782557 L31.5604353,22.6311803 C31.586215,22.5020202 31.7006559,22.4082201 31.8324283,22.4082201 L33.1676588,22.4082201 C33.2993441,22.4082201 33.413785,22.5020202 33.4396518,22.6311803 L33.9290302,25.0784299 C33.981025,25.338405 34.1745467,25.5469947 34.4296436,25.6184116 C34.9776359,25.7716968 35.5062935,25.9908249 36.0010716,26.2695251 C36.2320436,26.3996433 36.5166652,26.3889308 36.7371859,26.2419164 L38.8139304,24.8573857 C38.9235811,24.784314 39.0707691,24.7987716 39.1639592,24.8920491 L40.1080527,25.8361462 C40.2011557,25.9293366 40.2157003,26.0765252 40.142716,26.1861763 L38.7581906,28.2629287 C38.6110897,28.4835374 38.6003772,28.7679858 38.7305819,28.9990458 C39.0092811,29.4939129 39.2284084,30.0224854 39.3816929,30.5704797 C39.4531096,30.8257518 39.6616986,31.0191871 39.9216726,31.0710951 L42.3687387,31.5604753 C42.4978984,31.5862551 42.5916981,31.7006964 42.5916981,31.8324693 L42.5916981,33.1677049 C42.5916981,33.2993907 42.4978984,33.413832 42.3687387,33.4396989 L39.9214985,33.9290791 C39.6615244,33.9810741 39.4529354,34.1745966 39.3815188,34.4296945 C39.2282342,34.9776888 39.009107,35.5063484 38.7304077,36.0011284 C38.6002901,36.2321884 38.6110026,36.5167239 38.7580164,36.7372455 L40.1425418,38.8139979 C40.2156132,38.923649 40.2010686,39.0708376 40.1078786,39.164028 L39.163785,40.1081251 C39.0706821,40.2013155 38.923494,40.2157731 38.8137562,40.1427884 L36.7370117,38.7582578 C36.516491,38.6112434 36.2318694,38.6005309 36.0008974,38.7306491 C35.5060322,39.0093493 34.9774617,39.2284774 34.4294694,39.3817626 C34.1741984,39.4531795 33.9807637,39.6617692 33.928856,39.9217443 L33.4394776,42.3688197 C33.4136979,42.4979798 33.2992571,42.5917799 33.1674846,42.5917799 L31.8322541,42.5917799 C31.7005688,42.5917799 31.5861279,42.4979798 31.5602611,42.3688197 L31.0708827,39.9215701 C31.0188879,39.661595 30.8253662,39.4530053 30.5702693,39.3815884 C30.022277,39.2283032 29.4936195,39.0091751 28.9988413,38.7304749 C28.7677822,38.6003567 28.4831607,38.6110692 28.262727,38.7580836 L26.1859825,40.1426143 C26.0763318,40.215686 25.9291438,40.2012284 25.8359537,40.1079509 L24.8918602,39.1638538 C24.7987572,39.0706634 24.7842126,38.9234748 24.857197,38.8138237 L26.2417223,36.7370713 C26.3888233,36.5164626 26.3995358,36.2320142 26.269331,36.0009542 C25.9906318,35.5060871 25.7715045,34.9775146 25.61822,34.4295203 C25.5468033,34.1742482 25.3382144,33.9808129 25.0782403,33.9289049 L22.6311742,33.4395247 C22.5020145,33.4137449 22.4082148,33.2993036 22.4082148,33.1675307 L22.4082148,31.8322951 C22.4082148,31.7006093 22.5020145,31.586168 22.6311742,31.5603011 L22.780975,31.5303408 C23.1622703,31.4540466 23.4096159,31.083114 23.3332349,30.7018172 C23.256941,30.3205204 22.8864452,30.0736094 22.5046273,30.1495553 L22.3548265,30.1795155 C21.5698528,30.3366328 21,31.0317287 21,31.8323822 L21,33.1676178 C21,33.9681842 21.5698528,34.6633672 22.3550007,34.8203974 L24.3909854,35.227561 C24.5150066,35.5965776 24.6643719,35.9568848 24.8374267,36.305173 L23.6855281,38.0329404 C23.2413512,38.6992082 23.3299253,39.5936618 23.8961202,40.1597717 L24.8402137,41.1038689 C25.4064086,41.6700659 26.3008588,41.7585532 26.967037,41.3144617 L28.6947979,40.1625587 C29.0430848,40.3357013 29.4033906,40.4850672 29.7724057,40.6090017 L30.1795679,42.6449942 C30.3367716,43.4301451 31.0318649,44 31.8325154,44 L33.1677459,44 C33.9683093,44 34.6634896,43.4301451 34.8205192,42.6449942 L35.2276813,40.6090017 C35.5966965,40.4849801 35.9570023,40.3356142 36.3052892,40.1624716 L38.0330501,41.3143746 C38.6993154,41.7584661 39.5937656,41.6699788 40.1598734,41.1037818 L41.1039669,40.1596846 C41.6701618,39.5934877 41.7586488,38.699034 41.314559,38.0328533 L40.1626604,36.3050859 C40.3358022,35.9567977 40.4851676,35.5964905 40.6091016,35.2274739 L42.6450864,34.8203103 C43.4301472,34.6632801 44,33.9681842 44,33.1675307 L44,31.8322951 C44,31.0317287 43.4302343,30.3366328 42.6450864,30.1796026 Z" id="Path"></path>
                <path d="M33.0000884,30.4286093 C34.4180067,30.4286093 35.5714791,31.5820816 35.5714791,33 C35.5714791,33.3945043 35.8913236,33.7142605 36.2857395,33.7142605 C36.6801555,33.7142605 37,33.394416 37,33 C37,30.7943983 35.2056017,29 33,29 C30.7943983,29 29,30.7943983 29,33 C29,35.2056017 30.7943983,37 33,37 C33.8933557,37 34.7383813,36.7118749 35.4438063,36.1669023 C35.755964,35.9256936 35.8134829,35.4771161 35.5723626,35.1648701 C35.3311539,34.8527125 34.8824881,34.7951051 34.5703304,35.0363138 C34.1172469,35.3862873 33.5742181,35.5713907 33,35.5713907 C31.5820816,35.5713907 30.4286093,34.4179184 30.4286093,33 C30.4286976,31.5819933 31.58217,30.4286093 33.0000884,30.4286093 Z" id="Path"></path>
                <path d="M21,17 C21,14.7944085 19.2055103,13 17,13 C14.7944085,13 13,14.7944897 13,17 C13,19.2055915 14.7944085,21 17,21 C19.2055915,21 21,19.2055103 21,17 Z M14.3130571,17 C14.3130571,15.5185065 15.5185065,14.3130571 17,14.3130571 C18.4814935,14.3130571 19.6869429,15.5185065 19.6869429,17 C19.6869429,18.4814935 18.4815747,19.6869429 17,19.6869429 C15.5183441,19.6869429 14.3130571,18.4814935 14.3130571,17 Z" id="Shape"></path>
            </g>
        </g>
    </g>
</svg>